<?xml version="1.0" encoding="UTF-8" standalone="no"?>
<!-- Generator: Adobe Illustrator 16.0.0, SVG Export Plug-In . SVG Version: 6.00 Build 0)  -->
<svg xmlns:rdf="http://www.w3.org/1999/02/22-rdf-syntax-ns#" style="enable-background:new 0 0 72 34" xmlns="http://www.w3.org/2000/svg" xml:space="preserve" viewBox="0 0 72 34" version="1.1" y="0px" x="0px" xmlns:cc="http://creativecommons.org/ns#" xmlns:dc="http://purl.org/dc/elements/1.1/"><path fill="#fff" d="m24 1c9.869 0 11 1.115 11 10.85v10.3c0 9.735-1.131 10.85-11 10.85h-12c-9.869 0-11-1.115-11-10.85v-10.3c0-9.735 1.131-10.85 11-10.85h12m0-1h-12c-10.369 0-12 1.481-12 11.85v10.3c0 10.369 1.631 11.85 12 11.85h12c10.369 0 12-1.481 12-11.85v-10.3c0-10.369-1.631-11.85-12-11.85z"/><path fill="#DD4814" d="m60 1c9.869 0 11 1.115 11 10.85v10.3c0 9.735-1.131 10.85-11 10.85h-12c-9.869 0-11-1.115-11-10.85v-10.3c0-9.735 1.131-10.85 11-10.85h12m0-1h-12c-10.369 0-12 1.481-12 11.85v10.3c0 10.369 1.631 11.85 12 11.85h12c10.369 0 12-1.481 12-11.85v-10.3c0-10.369-1.631-11.85-12-11.85z"/><g transform="matrix(.20589 0 0 .20589 6.0643 14.063)"><g transform="translate(4.9945 -9.7003)"><path style="color:#000000" d="m75.449 18.005c0 15.757-12.747 28.529-28.47 28.529s-28.47-12.773-28.47-28.529c0-15.757 12.747-28.529 28.47-28.529s28.47 12.773 28.47 28.529z" stroke="#fff" stroke-width="9.0002" fill="none"/><path style="block-progression:tb;color:#000000;text-transform:none;text-indent:0" fill="#fff" d="m70.104 36.851-4.25 4.25 12 12 4.25-4.25z"/><path style="block-progression:tb;color:#000000;text-transform:none;text-indent:0" fill="#fff" d="m75.9 41.021c-2.3229 0.012-4.5673 1.535-5.438 3.6899s-0.31475 4.8109 1.347 6.4351l8.7905 8.7999c4.0247 4.274 4.8926 3.6973 8.464 0.1258s4.1548-4.1891-0.12572-8.4696l-8.7905-8.7999c-1.1011-1.1297-2.6702-1.7878-4.2472-1.7812z"/></g></g><g stroke="#dd4814" transform="matrix(.20504 0 0 .20504 14.931 20.125)"><path style="color:#000000" d="m212.77-21.449c0 15.757-12.747 28.529-28.47 28.529s-28.47-12.773-28.47-28.529c0-15.757 12.747-28.529 28.47-28.529s28.47 12.773 28.47 28.529z" stroke-width="9.0002" fill="none"/><path style="block-progression:tb;color:#000000;text-transform:none;text-indent:0" d="m207.42-2.6029-4.25 4.25 12 12 4.25-4.25z" stroke-width=".99967" fill="#dd4814"/><path style="block-progression:tb;color:#000000;text-transform:none;text-indent:0" d="m213.22 1.5671c-2.3229 0.012-4.5673 1.535-5.438 3.6899-0.87071 2.1549-0.31475 4.8109 1.347 6.4351l8.7905 8.7999c4.0247 4.274 4.8926 3.6973 8.464 0.1258s4.1548-4.1891-0.12571-8.4696l-8.7905-8.7999c-1.1011-1.1297-2.6702-1.7878-4.2472-1.7812z" stroke-width=".99967" fill="#dd4814"/></g></svg>
