<?xml version="1.0" encoding="UTF-8" standalone="no"?>
<svg xmlns:rdf="http://www.w3.org/1999/02/22-rdf-syntax-ns#" xmlns="http://www.w3.org/2000/svg" version="1.1" xmlns:cc="http://creativecommons.org/ns#" xmlns:dc="http://purl.org/dc/elements/1.1/" viewBox="0 0 72 36" width="72px" height="36px">
 <g stroke="#dd4814" transform="matrix(.45836 0 0 .45836 -33.314 25)">
  <path style="color:#000000" d="m212.77-21.449c0 15.757-12.747 28.529-28.47 28.529s-28.47-12.773-28.47-28.529c0-15.757 12.747-28.529 28.47-28.529s28.47 12.773 28.47 28.529z" stroke-width="9.0002" fill="none"/>
  <path style="block-progression:tb;color:#000000;text-transform:none;text-indent:0" d="m207.42-2.6029-4.25 4.25 12 12 4.25-4.25z" stroke-width=".99967" fill="#dd4814"/>
  <path style="block-progression:tb;color:#000000;text-transform:none;text-indent:0" d="m213.22 1.5671c-2.3229 0.012-4.5673 1.535-5.438 3.6899-0.87071 2.1549-0.31475 4.8109 1.347 6.4351l8.7905 8.7999c4.0247 4.274 4.8926 3.6973 8.464 0.1258s4.1548-4.1891-0.12571-8.4696l-8.7905-8.7999c-1.1011-1.1297-2.6702-1.7878-4.2472-1.7812z" stroke-width=".99967" fill="#dd4814"/>
 </g>
 <g transform="matrix(.46083 0 0 .46083 -6.4554 6.9238)">
  <path style="color:#000000" d="m75.449 18.005c0 15.757-12.747 28.529-28.47 28.529s-28.47-12.773-28.47-28.529c0-15.757 12.747-28.529 28.47-28.529s28.47 12.773 28.47 28.529z" stroke="#fff" stroke-width="9.0002" fill="none"/>
  <path d="m70.104 36.851-4.25 4.25 12 12 4.25-4.25z" style="block-progression:tb;color:#000000;text-transform:none;text-indent:0" fill="#fff"/>
  <path d="m75.9 41.021c-2.3229 0.012-4.5673 1.535-5.438 3.6899s-0.31475 4.8109 1.347 6.4351l8.7905 8.7999c4.0247 4.274 4.8926 3.6973 8.464 0.1258s4.1548-4.1891-0.12572-8.4696l-8.7905-8.7999c-1.1011-1.1297-2.6702-1.7878-4.2472-1.7812z" style="block-progression:tb;color:#000000;text-transform:none;text-indent:0" fill="#fff"/>
 </g>
</svg>
