<?xml version="1.0" encoding="utf-8"?>
<!DOCTYPE svg PUBLIC "-//W3C//DTD SVG 1.1//EN" "http://www.w3.org/Graphics/SVG/1.1/DTD/svg11.dtd" [
	<!ENTITY st0 "fill:#FFFFFF;">
	<!ENTITY st1 "fill:#333333;">
	<!ENTITY st2 "fill:#DD4713;">
]>
<svg version="1.1" id="Layer_1" xmlns="http://www.w3.org/2000/svg" xmlns:xlink="http://www.w3.org/1999/xlink" x="0px" y="0px"
	 width="288px" height="60px" viewBox="0 0 288 60" style="enable-background:new 0 0 288 60;" xml:space="preserve">
<g>
	<path style="&st2;" d="M63.198,23.643c-0.654,0.166-1.517,0.341-2.59,0.527c-1.073,0.186-2.314,0.279-3.725,0.279
		c-1.226,0-2.258-0.181-3.095-0.542c-0.838-0.361-1.514-0.873-2.023-1.533c-0.512-0.661-0.88-1.44-1.104-2.339
		c-0.225-0.898-0.338-1.895-0.338-2.99V8h2.852v8.426c0,1.961,0.307,3.366,0.919,4.213s1.645,1.27,3.096,1.27
		c0.306,0,0.623-0.011,0.949-0.031c0.328-0.021,0.634-0.046,0.919-0.077c0.287-0.031,0.547-0.062,0.783-0.093
		c0.235-0.031,0.403-0.067,0.505-0.108V8h2.851V23.643z"/>
	<path style="&st2;" d="M70.115,8.642c0.348-0.226,0.873-0.464,1.579-0.712c0.706-0.247,1.518-0.372,2.438-0.372
		c1.144,0,2.161,0.207,3.051,0.62c0.887,0.414,1.638,0.992,2.252,1.735c0.611,0.744,1.079,1.631,1.395,2.664
		c0.316,1.033,0.475,2.168,0.475,3.408c0,1.301-0.19,2.473-0.567,3.516c-0.379,1.043-0.915,1.926-1.609,2.649
		s-1.532,1.28-2.513,1.672c-0.981,0.392-2.085,0.588-3.312,0.588c-1.328,0-2.502-0.092-3.525-0.278s-1.859-0.371-2.513-0.558V0.496
		L70.115,0V8.642z M70.115,21.529c0.287,0.083,0.69,0.16,1.212,0.232c0.521,0.073,1.169,0.108,1.946,0.108
		c1.533,0,2.758-0.511,3.678-1.533c0.92-1.022,1.379-2.473,1.379-4.352c0-0.826-0.082-1.601-0.244-2.324
		c-0.165-0.722-0.43-1.347-0.798-1.873c-0.368-0.527-0.843-0.94-1.424-1.239c-0.583-0.299-1.283-0.45-2.1-0.45
		c-0.777,0-1.493,0.135-2.146,0.403c-0.653,0.269-1.154,0.548-1.502,0.837V21.529z"/>
	<path style="&st2;" d="M97.081,23.643c-0.654,0.166-1.519,0.341-2.59,0.527c-1.073,0.186-2.313,0.279-3.724,0.279
		c-1.226,0-2.259-0.181-3.097-0.542c-0.839-0.361-1.512-0.873-2.023-1.533c-0.51-0.661-0.878-1.44-1.104-2.339
		c-0.225-0.898-0.336-1.895-0.336-2.99V8h2.851v8.426c0,1.961,0.306,3.366,0.919,4.213c0.615,0.847,1.646,1.27,3.098,1.27
		c0.306,0,0.622-0.011,0.95-0.031c0.327-0.021,0.634-0.046,0.92-0.077s0.546-0.062,0.78-0.093c0.235-0.031,0.404-0.067,0.507-0.108
		V8h2.851V23.643z"/>
	<path style="&st2;" d="M101.146,8.547c0.654-0.165,1.522-0.341,2.606-0.526c1.083-0.185,2.33-0.279,3.739-0.279
		c1.267,0,2.319,0.181,3.157,0.542c0.838,0.362,1.507,0.868,2.009,1.518c0.5,0.651,0.852,1.431,1.056,2.339
		c0.204,0.909,0.307,1.91,0.307,3.005v9.045h-2.851v-8.426c0-0.991-0.066-1.837-0.198-2.54c-0.134-0.702-0.353-1.271-0.659-1.704
		c-0.307-0.434-0.717-0.748-1.227-0.944c-0.51-0.196-1.145-0.294-1.899-0.294c-0.308,0-0.623,0.01-0.95,0.03
		c-0.329,0.021-0.641,0.047-0.937,0.078c-0.296,0.031-0.562,0.066-0.796,0.108c-0.235,0.042-0.404,0.073-0.505,0.093V24.19h-2.852
		V8.547z"/>
	<path style="&st2;" d="M120.938,8.003h6.039v2.416h-6.039v7.435c0,0.806,0.062,1.471,0.185,1.998
		c0.122,0.527,0.306,0.94,0.551,1.24c0.246,0.298,0.552,0.51,0.92,0.634c0.369,0.124,0.798,0.186,1.288,0.186
		c0.858,0,1.548-0.099,2.069-0.295c0.522-0.195,0.884-0.334,1.088-0.417l0.553,2.385c-0.288,0.146-0.788,0.326-1.504,0.543
		c-0.715,0.216-1.532,0.325-2.452,0.325c-1.083,0-1.977-0.14-2.682-0.419c-0.705-0.278-1.273-0.697-1.702-1.254
		c-0.429-0.557-0.73-1.243-0.904-2.06c-0.173-0.815-0.26-1.761-0.26-2.834V3.512l2.851-0.496V8.003z"/>
	<path style="&st2;" d="M143,23.646c-0.654,0.166-1.517,0.341-2.591,0.527c-1.071,0.186-2.314,0.279-3.723,0.279
		c-1.226,0-2.258-0.181-3.096-0.542c-0.839-0.361-1.513-0.873-2.022-1.533c-0.512-0.661-0.88-1.44-1.104-2.339
		c-0.225-0.898-0.336-1.895-0.336-2.99V8.003h2.85v8.426c0,1.961,0.307,3.366,0.919,4.213c0.613,0.847,1.644,1.27,3.096,1.27
		c0.308,0,0.625-0.011,0.951-0.031c0.327-0.021,0.633-0.046,0.919-0.077s0.547-0.062,0.783-0.093
		c0.235-0.031,0.401-0.067,0.506-0.108V8.003H143V23.646z"/>
	<path style="&st1;" d="M65.254,36.469c0,1.281-0.183,2.437-0.552,3.469c-0.368,1.033-0.885,1.922-1.547,2.665
		c-0.666,0.743-1.458,1.315-2.376,1.719s-1.921,0.604-3.004,0.604s-2.084-0.201-3.003-0.604s-1.712-0.976-2.376-1.719
		s-1.179-1.632-1.547-2.665c-0.369-1.032-0.553-2.188-0.553-3.469c0-1.26,0.184-2.411,0.553-3.454
		c0.368-1.042,0.882-1.937,1.547-2.679c0.665-0.744,1.457-1.316,2.376-1.72c0.919-0.402,1.92-0.604,3.003-0.604
		s2.085,0.202,3.004,0.604c0.919,0.404,1.711,0.976,2.376,1.72c0.662,0.742,1.179,1.637,1.547,2.679
		C65.071,34.058,65.254,35.209,65.254,36.469z M62.281,36.469c0-1.816-0.403-3.258-1.21-4.321s-1.905-1.597-3.295-1.597
		s-2.488,0.533-3.295,1.597c-0.808,1.063-1.211,2.505-1.211,4.321c0,1.817,0.403,3.258,1.211,4.321
		c0.807,1.063,1.905,1.596,3.295,1.596s2.488-0.532,3.295-1.596S62.281,38.286,62.281,36.469z"/>
	<path style="&st1;" d="M68.261,28.805c0.654-0.165,1.522-0.34,2.605-0.526C71.95,28.092,73.196,28,74.606,28
		c1.266,0,2.319,0.18,3.157,0.542c0.838,0.362,1.508,0.867,2.008,1.519c0.5,0.65,0.852,1.43,1.059,2.338
		c0.202,0.908,0.306,1.911,0.306,3.006v9.045h-2.851v-8.426c0-0.992-0.066-1.839-0.199-2.541c-0.134-0.701-0.352-1.27-0.66-1.703
		c-0.306-0.434-0.715-0.748-1.226-0.945c-0.511-0.196-1.146-0.294-1.9-0.294c-0.306,0-0.623,0.011-0.95,0.03
		c-0.328,0.021-0.639,0.047-0.935,0.078c-0.297,0.031-0.562,0.066-0.797,0.108c-0.235,0.042-0.403,0.071-0.506,0.093v13.6h-2.85
		V28.805z"/>
	<path style="&st1;" d="M84.206,36.605c0-1.426,0.203-2.67,0.612-3.732c0.41-1.064,0.951-1.947,1.626-2.649
		c0.673-0.702,1.45-1.229,2.329-1.579c0.878-0.351,1.777-0.527,2.698-0.527c2.145,0,3.79,0.677,4.934,2.029
		c1.145,1.353,1.717,3.414,1.717,6.18c0,0.125,0,0.284,0,0.48c0,0.197-0.011,0.377-0.032,0.542H87.178
		c0.122,1.673,0.603,2.942,1.44,3.81c0.839,0.868,2.147,1.301,3.926,1.301c1,0,1.843-0.086,2.528-0.264
		c0.686-0.174,1.201-0.344,1.547-0.51l0.399,2.416c-0.349,0.187-0.956,0.383-1.824,0.589C94.326,44.896,93.339,45,92.236,45
		c-1.388,0-2.59-0.212-3.6-0.636c-1.013-0.423-1.845-1.007-2.5-1.75c-0.654-0.743-1.139-1.626-1.457-2.648
		C84.363,38.944,84.206,37.824,84.206,36.605z M95.148,35.025c0.021-1.301-0.302-2.369-0.966-3.206
		c-0.663-0.837-1.578-1.255-2.742-1.255c-0.656,0-1.232,0.13-1.732,0.387c-0.501,0.26-0.924,0.595-1.273,1.008
		c-0.348,0.412-0.617,0.888-0.812,1.424c-0.194,0.539-0.323,1.084-0.383,1.643H95.148z"/>
	<path style="&st2;" d="M27,8v36H15V20H9.042l6.532-12H0v30.43c0,10.155,6.938,18.789,20.507,18.789
		C31.562,57.219,40,54.68,40,54.68V8H27z"/>
</g>
<g>
	<path style="&st0;" d="M208.198,23.643c-0.654,0.166-1.517,0.341-2.59,0.527c-1.073,0.186-2.314,0.279-3.725,0.279
		c-1.226,0-2.258-0.181-3.095-0.542c-0.838-0.361-1.514-0.873-2.023-1.533c-0.512-0.661-0.88-1.44-1.104-2.339
		c-0.225-0.898-0.338-1.895-0.338-2.99V8h2.852v8.426c0,1.961,0.307,3.366,0.919,4.213s1.645,1.27,3.096,1.27
		c0.306,0,0.623-0.011,0.949-0.031c0.328-0.021,0.634-0.046,0.919-0.077c0.287-0.031,0.547-0.062,0.783-0.093
		c0.235-0.031,0.403-0.067,0.505-0.108V8h2.851V23.643z"/>
	<path style="&st0;" d="M215.115,8.642c0.348-0.226,0.873-0.464,1.579-0.712c0.706-0.247,1.518-0.372,2.438-0.372
		c1.144,0,2.161,0.207,3.051,0.62c0.887,0.414,1.638,0.992,2.252,1.735c0.611,0.744,1.079,1.631,1.395,2.664
		c0.316,1.033,0.475,2.168,0.475,3.408c0,1.301-0.19,2.473-0.567,3.516c-0.379,1.043-0.915,1.926-1.609,2.649
		s-1.532,1.28-2.513,1.672c-0.981,0.392-2.085,0.588-3.312,0.588c-1.328,0-2.502-0.092-3.525-0.278s-1.859-0.371-2.513-0.558V0.496
		L215.115,0V8.642z M215.115,21.529c0.287,0.083,0.69,0.16,1.212,0.232c0.521,0.073,1.169,0.108,1.946,0.108
		c1.533,0,2.758-0.511,3.678-1.533c0.92-1.022,1.379-2.473,1.379-4.352c0-0.826-0.082-1.601-0.244-2.324
		c-0.165-0.722-0.43-1.347-0.798-1.873c-0.368-0.527-0.843-0.94-1.424-1.239c-0.583-0.299-1.283-0.45-2.1-0.45
		c-0.777,0-1.493,0.135-2.146,0.403c-0.653,0.269-1.154,0.548-1.502,0.837V21.529z"/>
	<path style="&st0;" d="M242.081,23.643c-0.654,0.166-1.519,0.341-2.59,0.527c-1.073,0.186-2.313,0.279-3.724,0.279
		c-1.226,0-2.259-0.181-3.097-0.542c-0.839-0.361-1.512-0.873-2.023-1.533c-0.51-0.661-0.878-1.44-1.104-2.339
		c-0.225-0.898-0.336-1.895-0.336-2.99V8h2.851v8.426c0,1.961,0.306,3.366,0.919,4.213c0.615,0.847,1.646,1.27,3.098,1.27
		c0.306,0,0.622-0.011,0.95-0.031c0.327-0.021,0.634-0.046,0.92-0.077s0.546-0.062,0.78-0.093c0.235-0.031,0.404-0.067,0.507-0.108
		V8h2.851V23.643z"/>
	<path style="&st0;" d="M246.146,8.547c0.654-0.165,1.522-0.341,2.606-0.526c1.083-0.185,2.33-0.279,3.739-0.279
		c1.267,0,2.319,0.181,3.157,0.542c0.838,0.362,1.507,0.868,2.009,1.518c0.5,0.651,0.852,1.431,1.056,2.339
		c0.204,0.909,0.307,1.91,0.307,3.005v9.045h-2.851v-8.426c0-0.991-0.066-1.837-0.198-2.54c-0.134-0.702-0.353-1.271-0.659-1.704
		c-0.307-0.434-0.717-0.748-1.227-0.944c-0.51-0.196-1.145-0.294-1.899-0.294c-0.308,0-0.623,0.01-0.95,0.03
		c-0.329,0.021-0.641,0.047-0.937,0.078c-0.296,0.031-0.562,0.066-0.796,0.108c-0.235,0.042-0.404,0.073-0.505,0.093V24.19h-2.852
		V8.547z"/>
	<path style="&st0;" d="M265.938,8.003h6.039v2.416h-6.039v7.435c0,0.806,0.062,1.471,0.185,1.998
		c0.122,0.527,0.306,0.94,0.551,1.24c0.246,0.298,0.552,0.51,0.92,0.634c0.369,0.124,0.798,0.186,1.288,0.186
		c0.858,0,1.548-0.099,2.069-0.295c0.522-0.195,0.884-0.334,1.088-0.417l0.553,2.385c-0.288,0.146-0.788,0.326-1.504,0.543
		c-0.715,0.216-1.532,0.325-2.452,0.325c-1.083,0-1.977-0.14-2.682-0.419c-0.705-0.278-1.273-0.697-1.702-1.254
		c-0.429-0.557-0.73-1.243-0.904-2.06c-0.173-0.815-0.26-1.761-0.26-2.834V3.512l2.851-0.496V8.003z"/>
	<path style="&st0;" d="M288,23.646c-0.654,0.166-1.517,0.341-2.591,0.527c-1.071,0.186-2.314,0.279-3.723,0.279
		c-1.226,0-2.258-0.181-3.096-0.542c-0.839-0.361-1.513-0.873-2.022-1.533c-0.512-0.661-0.88-1.44-1.104-2.339
		c-0.225-0.898-0.336-1.895-0.336-2.99V8.003h2.85v8.426c0,1.961,0.307,3.366,0.919,4.213c0.613,0.847,1.644,1.27,3.096,1.27
		c0.308,0,0.625-0.011,0.951-0.031c0.327-0.021,0.633-0.046,0.919-0.077s0.547-0.062,0.783-0.093
		c0.235-0.031,0.401-0.067,0.506-0.108V8.003H288V23.646z"/>
	<path style="&st1;" d="M210.254,36.469c0,1.281-0.183,2.437-0.552,3.469c-0.368,1.033-0.885,1.922-1.547,2.665
		c-0.666,0.743-1.458,1.315-2.376,1.719s-1.921,0.604-3.004,0.604s-2.084-0.201-3.003-0.604s-1.712-0.976-2.376-1.719
		s-1.179-1.632-1.547-2.665c-0.369-1.032-0.553-2.188-0.553-3.469c0-1.26,0.184-2.411,0.553-3.454
		c0.368-1.042,0.882-1.937,1.547-2.679c0.665-0.744,1.457-1.316,2.376-1.72c0.919-0.402,1.92-0.604,3.003-0.604
		s2.085,0.202,3.004,0.604c0.919,0.404,1.711,0.976,2.376,1.72c0.662,0.742,1.179,1.637,1.547,2.679
		C210.071,34.058,210.254,35.209,210.254,36.469z M207.281,36.469c0-1.816-0.403-3.258-1.21-4.321s-1.905-1.597-3.295-1.597
		s-2.488,0.533-3.295,1.597c-0.808,1.063-1.211,2.505-1.211,4.321c0,1.817,0.403,3.258,1.211,4.321
		c0.807,1.063,1.905,1.596,3.295,1.596s2.488-0.532,3.295-1.596S207.281,38.286,207.281,36.469z"/>
	<path style="&st1;" d="M213.261,28.805c0.654-0.165,1.522-0.34,2.605-0.526c1.083-0.186,2.33-0.278,3.74-0.278
		c1.266,0,2.319,0.18,3.157,0.542c0.838,0.362,1.508,0.867,2.008,1.519c0.5,0.65,0.852,1.43,1.059,2.338
		c0.202,0.908,0.306,1.911,0.306,3.006v9.045h-2.851v-8.426c0-0.992-0.066-1.839-0.199-2.541c-0.134-0.701-0.352-1.27-0.66-1.703
		c-0.306-0.434-0.715-0.748-1.226-0.945c-0.511-0.196-1.146-0.294-1.9-0.294c-0.306,0-0.623,0.011-0.95,0.03
		c-0.328,0.021-0.639,0.047-0.935,0.078c-0.297,0.031-0.562,0.066-0.797,0.108c-0.235,0.042-0.403,0.071-0.506,0.093v13.6h-2.85
		V28.805z"/>
	<path style="&st1;" d="M229.206,36.605c0-1.426,0.203-2.67,0.612-3.732c0.41-1.064,0.951-1.947,1.626-2.649
		c0.673-0.702,1.45-1.229,2.329-1.579c0.878-0.351,1.777-0.527,2.698-0.527c2.145,0,3.79,0.677,4.934,2.029
		c1.145,1.353,1.717,3.414,1.717,6.18c0,0.125,0,0.284,0,0.48c0,0.197-0.011,0.377-0.032,0.542h-10.912
		c0.122,1.673,0.603,2.942,1.44,3.81c0.839,0.868,2.147,1.301,3.926,1.301c1,0,1.843-0.086,2.528-0.264
		c0.686-0.174,1.201-0.344,1.547-0.51l0.399,2.416c-0.349,0.187-0.956,0.383-1.824,0.589c-0.869,0.206-1.855,0.31-2.959,0.31
		c-1.388,0-2.59-0.212-3.6-0.636c-1.013-0.423-1.845-1.007-2.5-1.75c-0.654-0.743-1.139-1.626-1.457-2.648
		C229.363,38.944,229.206,37.824,229.206,36.605z M240.148,35.025c0.021-1.301-0.302-2.369-0.966-3.206
		c-0.663-0.837-1.578-1.255-2.742-1.255c-0.656,0-1.232,0.13-1.732,0.387c-0.501,0.26-0.924,0.595-1.273,1.008
		c-0.348,0.412-0.617,0.888-0.812,1.424c-0.194,0.539-0.323,1.084-0.383,1.643H240.148z"/>
	<path style="&st0;" d="M172,8v36h-12V20h-5.958l6.532-12H145v30.43c0,10.155,6.938,18.789,20.507,18.789
		c11.056,0,19.493-2.539,19.493-2.539V8H172z"/>
</g>
</svg>
